<?xml version="1.0" encoding="iso-8859-1"?>
<!-- Generator: Adobe Illustrator 19.2.1, SVG Export Plug-In . SVG Version: 6.00 Build 0)  -->
<svg version="1.1" id="Layer_1" xmlns="http://www.w3.org/2000/svg" xmlns:xlink="http://www.w3.org/1999/xlink" x="0px" y="0px"
	 viewBox="0 0 40 40" style="enable-background:new 0 0 40 40;" xml:space="preserve">
<g>
	<path style="fill:#8BB7F0;" d="M29.899,34.813c-0.935,0-1.813-0.363-2.475-1.024c-1.364-1.365-1.364-3.585,0-4.95
		c0.661-0.661,1.54-1.025,2.475-1.025s1.813,0.364,2.475,1.025c1.364,1.365,1.364,3.585,0,4.95
		C31.713,34.45,30.834,34.813,29.899,34.813z"/>
	<path style="fill:#4E7AB5;" d="M29.899,28.314c0.801,0,1.555,0.312,2.121,0.879s0.879,1.32,0.879,2.121s-0.312,1.555-0.879,2.121
		c-0.567,0.567-1.32,0.879-2.121,0.879s-1.555-0.312-2.121-0.879c-1.17-1.17-1.17-3.073,0-4.243
		C28.345,28.626,29.098,28.314,29.899,28.314 M29.899,27.314c-1.024,0-2.047,0.391-2.828,1.172c-1.562,1.562-1.562,4.095,0,5.657
		c0.781,0.781,1.805,1.172,2.828,1.172c1.024,0,2.047-0.391,2.828-1.172c1.562-1.562,1.562-4.095,0-5.657
		C31.947,27.704,30.923,27.314,29.899,27.314L29.899,27.314z"/>
</g>
<g>
	<path style="fill:#8BB7F0;" d="M7.626,11.04c-0.535,0-1.037-0.208-1.415-0.586c-0.779-0.78-0.779-2.049,0-2.828
		C6.589,7.248,7.091,7.04,7.626,7.04c0.534,0,1.036,0.208,1.414,0.586s0.586,0.88,0.586,1.414s-0.208,1.036-0.586,1.414
		S8.16,11.04,7.626,11.04z"/>
	<path style="fill:#4E7AB5;" d="M7.626,7.54c0.401,0,0.777,0.156,1.061,0.439c0.585,0.585,0.585,1.536,0,2.121
		c-0.283,0.283-0.66,0.439-1.061,0.439c-0.401,0-0.777-0.156-1.061-0.439c-0.585-0.585-0.585-1.536,0-2.121
		C6.848,7.696,7.225,7.54,7.626,7.54 M7.626,6.54c-0.64,0-1.28,0.244-1.768,0.732c-0.976,0.976-0.976,2.559,0,3.536
		c0.488,0.488,1.128,0.732,1.768,0.732c0.64,0,1.28-0.244,1.768-0.732c0.976-0.976,0.976-2.559,0-3.536
		C8.905,6.784,8.265,6.54,7.626,6.54L7.626,6.54z"/>
</g>
<g>
	<path style="fill:#8BB7F0;" d="M7.979,32.313c-0.268,0-0.519-0.104-0.707-0.293c-0.189-0.188-0.293-0.439-0.293-0.707
		c0-0.267,0.104-0.518,0.293-0.707s0.439-0.293,0.707-0.293c0.267,0,0.518,0.104,0.707,0.293c0.188,0.189,0.293,0.44,0.293,0.707
		c0,0.268-0.104,0.519-0.293,0.707S8.246,32.313,7.979,32.313z"/>
	<g>
		<path style="fill:#4E7AB5;" d="M7.979,30.814c0.077,0,0.226,0.019,0.354,0.146c0.195,0.195,0.195,0.512,0,0.707
			c-0.128,0.127-0.276,0.146-0.354,0.146s-0.226-0.019-0.354-0.146c-0.195-0.195-0.195-0.512,0-0.707
			C7.753,30.833,7.902,30.814,7.979,30.814 M7.979,29.814c-0.384,0-0.768,0.146-1.061,0.439c-0.586,0.586-0.586,1.536,0,2.121
			c0.293,0.293,0.677,0.439,1.061,0.439s0.768-0.146,1.061-0.439c0.586-0.586,0.586-1.536,0-2.121
			C8.747,29.96,8.363,29.814,7.979,29.814L7.979,29.814z"/>
	</g>
</g>
<g>
	<path style="fill:#8BB7F0;" d="M29.899,12.394c-0.802,0-1.555-0.312-2.121-0.879s-0.879-1.32-0.879-2.121
		c0-0.802,0.312-1.555,0.879-2.121s1.319-0.879,2.121-0.879s1.555,0.312,2.121,0.879s0.879,1.319,0.879,2.121
		c0,0.801-0.312,1.555-0.879,2.121S30.701,12.394,29.899,12.394z"/>
	<path style="fill:#4E7AB5;" d="M29.899,6.893c0.668,0,1.296,0.26,1.768,0.732c0.975,0.975,0.975,2.561,0,3.536
		c-0.472,0.472-1.1,0.732-1.768,0.732s-1.296-0.26-1.768-0.732c-0.472-0.472-0.732-1.1-0.732-1.768c0-0.668,0.26-1.296,0.732-1.768
		C28.604,7.153,29.232,6.893,29.899,6.893 M29.899,5.893c-0.896,0-1.791,0.342-2.475,1.025c-1.367,1.367-1.367,3.583,0,4.95
		c0.683,0.683,1.579,1.025,2.475,1.025c0.896,0,1.791-0.342,2.475-1.025c1.367-1.367,1.367-3.583,0-4.95
		C31.691,6.235,30.795,5.893,29.899,5.893L29.899,5.893z"/>
</g>
<g>
	<path style="fill:#8BB7F0;" d="M17.879,36.764c-0.134,0-0.259-0.052-0.354-0.146s-0.146-0.22-0.146-0.354s0.052-0.259,0.146-0.354
		s0.22-0.146,0.354-0.146s0.259,0.052,0.354,0.146s0.146,0.22,0.146,0.354s-0.052,0.259-0.146,0.354S18.013,36.764,17.879,36.764z"
		/>
	<g>
		<path style="fill:#4E7AB5;" d="M17.879,36.263L17.879,36.263C17.878,36.263,17.878,36.263,17.879,36.263 M17.879,35.263
			c-0.256,0-0.512,0.098-0.707,0.293c-0.391,0.391-0.391,1.024,0,1.414c0.195,0.195,0.451,0.293,0.707,0.293
			s0.512-0.098,0.707-0.293c0.391-0.391,0.391-1.024,0-1.414C18.391,35.361,18.135,35.263,17.879,35.263L17.879,35.263z"/>
	</g>
</g>
<g>
	<path style="fill:#8BB7F0;" d="M18.586,6.943c-0.668,0-1.296-0.26-1.768-0.731c-0.473-0.473-0.732-1.101-0.732-1.768
		c0-0.668,0.26-1.296,0.732-1.769c0.472-0.473,1.1-0.732,1.768-0.732c0.667,0,1.295,0.26,1.768,0.732s0.732,1.101,0.732,1.769
		c0,0.667-0.26,1.295-0.732,1.768C19.881,6.684,19.253,6.943,18.586,6.943z"/>
	<path style="fill:#4E7AB5;" d="M18.586,2.444c0.534,0,1.036,0.208,1.414,0.586c0.78,0.78,0.78,2.049,0,2.828
		c-0.378,0.378-0.88,0.586-1.414,0.586c-0.534,0-1.036-0.208-1.414-0.586c-0.78-0.78-0.78-2.049,0-2.828
		C17.549,2.652,18.052,2.444,18.586,2.444 M18.586,1.444c-0.768,0-1.536,0.293-2.121,0.879c-1.172,1.172-1.172,3.071,0,4.243
		c0.586,0.586,1.354,0.879,2.121,0.879c0.768,0,1.536-0.293,2.121-0.879c1.172-1.172,1.172-3.071,0-4.243
		C20.121,1.737,19.354,1.444,18.586,1.444L18.586,1.444z"/>
</g>
<g>
	<path style="fill:#8BB7F0;" d="M3.029,21.5c-0.4,0-0.777-0.156-1.061-0.439c-0.585-0.585-0.585-1.536,0-2.121
		c0.283-0.283,0.66-0.439,1.061-0.439c0.401,0,0.777,0.156,1.061,0.439c0.585,0.585,0.585,1.536,0,2.121
		C3.807,21.344,3.431,21.5,3.029,21.5z"/>
	<path style="fill:#4E7AB5;" d="M3.029,19c0.267,0,0.518,0.104,0.707,0.293c0.189,0.189,0.293,0.44,0.293,0.707
		s-0.104,0.518-0.293,0.707C3.548,20.896,3.297,21,3.029,21c-0.267,0-0.518-0.104-0.707-0.293C2.133,20.518,2.029,20.267,2.029,20
		s0.104-0.518,0.293-0.707C2.511,19.104,2.762,19,3.029,19 M3.029,18c-0.512,0-1.024,0.195-1.414,0.586
		c-0.781,0.781-0.781,2.047,0,2.828C2.006,21.805,2.518,22,3.029,22s1.024-0.195,1.414-0.586c0.781-0.781,0.781-2.047,0-2.828
		C4.053,18.195,3.541,18,3.029,18L3.029,18z"/>
</g>
<g>
	<path style="fill:#8BB7F0;" d="M34.143,23.5c-0.936,0-1.814-0.364-2.476-1.025c-1.364-1.364-1.364-3.585,0-4.949
		c0.661-0.661,1.54-1.025,2.476-1.025c0.935,0,1.813,0.364,2.475,1.025c1.364,1.364,1.364,3.585,0,4.949
		C35.956,23.136,35.077,23.5,34.143,23.5z"/>
	<path style="fill:#4E7AB5;" d="M34.142,17c0.801,0,1.555,0.312,2.121,0.879c0.567,0.567,0.879,1.32,0.879,2.121
		s-0.312,1.555-0.879,2.121C35.697,22.688,34.943,23,34.142,23s-1.555-0.312-2.121-0.879c-0.567-0.567-0.879-1.32-0.879-2.121
		s0.312-1.555,0.879-2.121C32.587,17.312,33.341,17,34.142,17 M34.142,16c-1.024,0-2.047,0.391-2.828,1.172
		c-1.562,1.562-1.562,4.095,0,5.657C32.095,23.609,33.118,24,34.142,24c1.024,0,2.047-0.391,2.828-1.172
		c1.562-1.562,1.562-4.095,0-5.657C36.19,16.391,35.166,16,34.142,16L34.142,16z"/>
</g>
</svg>
